<svg width="157" height="92" viewBox="0 0 157 92" fill="none" xmlns="http://www.w3.org/2000/svg">
<path d="M0 0H57.7021V15.6359H17.4601V36.9899H57.7021V52.2346H17.4601V91.2058H0.00166337V0H0Z" fill="white"/>
<path d="M69.3594 0H86.8178V15.6359H69.3594V0ZM69.3594 25.7946H86.8178V91.2041H69.3594V25.7946Z" fill="white"/>
<path d="M98.4102 25.7904H115.83V37.9889H116.103C118.96 30.5036 123.588 23.8359 135.564 23.8359C147.54 23.8359 156.114 29.2798 156.114 46.4271V91.1999H138.694V53.1149C138.694 40.0236 128.848 41.0987 127.425 41.2241C117.863 42.0651 115.83 49.2059 115.83 62.369V91.1999H98.4102V25.7904Z" fill="white"/>
</svg>
