<svg width="340" height="340" viewBox="0 0 340 340" fill="none" xmlns="http://www.w3.org/2000/svg">
<g clip-path="url(#clip0_1_10523)">
<path d="M312.316 -0.000254326C310.371 -0.000254326 308.494 0.774983 307.12 2.14865L224.129 85.1398C220.593 88.676 214.636 85.2486 215.942 80.4068L235.01 9.23459C236.261 4.56957 232.738 -0.013855 227.91 -0.013855H198.737C195.418 -0.013855 192.508 2.21665 191.637 5.42641L177.003 60.0194C176.119 63.338 176.119 66.8334 177.003 70.1519L187.503 109.335C193.092 130.172 209.359 146.452 230.195 152.028L269.379 162.528C272.697 163.412 276.192 163.412 279.511 162.528L334.104 147.893C337.314 147.036 339.544 144.126 339.544 140.794V111.607C339.544 106.792 334.988 103.283 330.337 104.534C305.325 111.24 276.927 118.842 259.11 123.616C254.282 124.908 250.854 118.965 254.391 115.429L337.395 32.4237C338.769 31.05 339.544 29.1732 339.544 27.2283C339.572 12.2131 327.372 -0.000254326 312.316 -0.000254326Z" fill="white"/>
<path d="M312.316 339.567C310.371 339.567 308.494 338.792 307.12 337.418L224.129 254.427C220.593 250.891 214.636 254.318 215.942 259.16L235.01 330.332C236.261 334.997 232.738 339.581 227.91 339.581H198.737C195.418 339.581 192.508 337.35 191.637 334.14L177.003 279.547C176.119 276.229 176.119 272.733 177.003 269.415L187.503 230.231C193.092 209.395 209.359 193.115 230.195 187.539L269.379 177.039C272.697 176.155 276.192 176.155 279.511 177.039L334.104 191.674C337.314 192.53 339.544 195.441 339.544 198.773V227.96C339.544 232.775 334.988 236.284 330.337 235.032C305.325 228.327 276.927 220.725 259.11 215.951C254.282 214.659 250.854 220.602 254.391 224.138L337.395 307.143C338.769 308.517 339.544 310.394 339.544 312.339C339.544 327.394 327.331 339.608 312.275 339.608L312.316 339.567Z" fill="white"/>
<path d="M27.2693 0C29.2142 0 31.0911 0.775237 32.4648 2.1489L115.456 85.1401C118.992 88.6763 124.949 85.2489 123.644 80.4071L104.575 9.23485C103.324 4.58342 106.847 0 111.675 0H140.848C144.167 0 147.077 2.23051 147.948 5.44026L162.582 60.0333C163.466 63.3519 163.466 66.8472 162.582 70.1658L152.083 109.349C146.493 130.185 130.226 146.465 109.39 152.042L70.2066 162.541C66.888 163.425 63.3927 163.425 60.0741 162.541L5.48107 147.907C2.23051 147.077 0 144.167 0 140.835V111.648C0 106.833 4.56982 103.311 9.22125 104.562C34.2193 111.267 62.6038 118.87 80.4207 123.644C85.2625 124.936 88.6899 118.992 85.1401 115.456L2.1489 32.4648C0.775238 31.0775 0 29.2142 0 27.2693C0 12.2134 12.2134 0 27.2693 0Z" fill="white"/>
<path d="M27.2692 339.567C29.2141 339.567 31.091 338.792 32.4646 337.418L115.456 254.427C118.992 250.891 124.949 254.318 123.643 259.16L104.575 330.332C103.324 334.997 106.847 339.581 111.675 339.581H140.848C144.167 339.581 147.077 337.35 147.948 334.14L162.582 279.547C163.466 276.229 163.466 272.733 162.582 269.415L152.082 230.231C146.493 209.395 130.226 193.115 109.39 187.539L70.2065 177.039C66.8879 176.155 63.3925 176.155 60.074 177.039L5.48094 191.674C2.23039 192.503 -0.00012207 195.414 -0.00012207 198.732V227.919C-0.00012207 232.734 4.5697 236.256 9.22112 235.005C34.2191 228.3 62.6037 220.697 80.4206 215.924C85.2624 214.631 88.6898 220.575 85.14 224.111L2.14878 307.116C0.775115 308.49 -0.00012207 310.353 -0.00012207 312.311C-0.00012207 327.367 12.2133 339.581 27.2692 339.581V339.567Z" fill="white"/>
</g>
<defs>
<clipPath id="clip0_1_10523">
<rect width="339.568" height="339.568" fill="white"/>
</clipPath>
</defs>
</svg>
