<svg width="340" height="340" viewBox="0 0 340 340" fill="none" xmlns="http://www.w3.org/2000/svg">
<g clip-path="url(#clip0_1_10516)">
<path d="M312.33 -0.452586C310.386 -0.452586 308.509 0.322652 307.135 1.69632L224.144 84.6875C220.608 88.2237 214.651 84.7963 215.956 79.9545L235.024 8.78226C236.276 4.11723 232.753 -0.466187 227.925 -0.466187H198.751C195.433 -0.466187 192.522 1.76432 191.652 4.97408L177.017 59.5671C176.133 62.8857 176.133 66.381 177.017 69.6996L187.517 108.883C193.107 129.719 209.373 145.999 230.21 151.576L269.393 162.075C272.712 162.959 276.207 162.959 279.526 162.075L334.119 147.441C337.328 146.584 339.559 143.674 339.559 140.341V111.154C339.559 106.34 335.003 102.831 330.351 104.082C305.34 110.787 276.942 118.39 259.125 123.164C254.296 124.456 250.869 118.512 254.405 114.976L337.41 31.9714C338.784 30.5977 339.559 28.7208 339.559 26.7759C339.586 11.7608 327.386 -0.452586 312.33 -0.452586Z" fill="#1A1A1A"/>
<path d="M312.316 339.567C310.371 339.567 308.494 338.792 307.12 337.418L224.129 254.427C220.593 250.891 214.636 254.318 215.942 259.16L235.01 330.332C236.261 334.997 232.738 339.581 227.91 339.581H198.737C195.418 339.581 192.508 337.35 191.637 334.14L177.003 279.547C176.119 276.229 176.119 272.733 177.003 269.415L187.503 230.231C193.092 209.395 209.359 193.115 230.195 187.539L269.379 177.039C272.697 176.155 276.192 176.155 279.511 177.039L334.104 191.674C337.314 192.53 339.544 195.441 339.544 198.773V227.96C339.544 232.775 334.988 236.284 330.337 235.032C305.325 228.327 276.927 220.725 259.11 215.951C254.282 214.659 250.854 220.602 254.391 224.138L337.395 307.143C338.769 308.517 339.544 310.394 339.544 312.339C339.544 327.394 327.331 339.608 312.275 339.608L312.316 339.567Z" fill="#1A1A1A"/>
<path d="M27.2693 0C29.2142 0 31.0911 0.775237 32.4648 2.1489L115.456 85.1401C118.992 88.6763 124.949 85.2489 123.644 80.4071L104.575 9.23485C103.324 4.58342 106.847 0 111.675 0H140.848C144.167 0 147.077 2.23051 147.948 5.44026L162.582 60.0333C163.466 63.3519 163.466 66.8472 162.582 70.1658L152.083 109.349C146.493 130.185 130.226 146.465 109.39 152.042L70.2066 162.541C66.888 163.425 63.3927 163.425 60.0741 162.541L5.48107 147.907C2.23051 147.077 0 144.167 0 140.835V111.648C0 106.833 4.56982 103.311 9.22125 104.562C34.2193 111.267 62.6038 118.87 80.4207 123.644C85.2625 124.936 88.6899 118.992 85.1401 115.456L2.1489 32.4648C0.775238 31.0775 0 29.2142 0 27.2693C0 12.2134 12.2134 0 27.2693 0Z" fill="#1A1A1A"/>
<path d="M27.2692 339.567C29.2141 339.567 31.091 338.792 32.4647 337.418L115.456 254.427C118.992 250.891 124.949 254.318 123.643 259.16L104.575 330.332C103.324 334.997 106.847 339.581 111.675 339.581H140.848C144.167 339.581 147.077 337.35 147.948 334.14L162.582 279.547C163.466 276.229 163.466 272.733 162.582 269.415L152.082 230.231C146.493 209.395 130.226 193.115 109.39 187.539L70.2065 177.039C66.8879 176.155 63.3926 176.155 60.074 177.039L5.48097 191.674C2.23042 192.503 -9.15527e-05 195.414 -9.15527e-05 198.732V227.919C-9.15527e-05 232.734 4.56973 236.256 9.22115 235.005C34.2192 228.3 62.6037 220.697 80.4206 215.924C85.2624 214.631 88.6898 220.575 85.14 224.111L2.14881 307.116C0.775146 308.49 -9.15527e-05 310.353 -9.15527e-05 312.311C-9.15527e-05 327.367 12.2133 339.581 27.2692 339.581V339.567Z" fill="#1A1A1A"/>
</g>
<defs>
<clipPath id="clip0_1_10516">
<rect width="339.568" height="339.568" fill="white"/>
</clipPath>
</defs>
</svg>
