<svg width="556" height="196" viewBox="0 0 556 196" fill="none" xmlns="http://www.w3.org/2000/svg">
<path d="M220.732 0.00012207H344.558V33.5541H258.201V79.3786H344.558V112.093H258.201V195.723H220.736V0.00012207H220.732Z" fill="white"/>
<path d="M369.564 0H407.029V33.5539H369.564V0ZM369.564 55.354H407.029V195.719H369.564V55.354Z" fill="white"/>
<path d="M431.914 55.3542H469.296V81.5314H469.881C476.013 65.4684 485.944 51.1599 511.644 51.1599C537.344 51.1599 555.743 62.8421 555.743 99.6395V195.72H518.361V113.991C518.361 85.8979 497.231 88.2049 494.178 88.474C473.659 90.2787 469.296 105.603 469.296 133.85V195.72H431.914V55.3542Z" fill="white"/>
<g clip-path="url(#clip0_1_10548)">
<path d="M180.016 0.000392977C178.895 0.000392977 177.813 0.447231 177.021 1.239L129.186 49.0742C127.148 51.1124 123.714 49.1369 124.467 46.3461L135.457 5.32326C136.178 2.63439 134.148 -0.00744629 131.365 -0.00744629H114.55C112.637 -0.00744629 110.96 1.27819 110.458 3.12826L102.023 34.5951C101.513 36.5079 101.513 38.5225 102.023 40.4353L108.075 63.0203C111.297 75.03 120.672 84.4136 132.682 87.6277L155.267 93.6796C157.18 94.1892 159.195 94.1892 161.107 93.6796L192.574 85.2446C194.424 84.7507 195.71 83.0731 195.71 81.1525V64.3294C195.71 61.5543 193.084 59.5318 190.403 60.253C175.986 64.1178 159.618 68.4999 149.348 71.2515C146.566 71.9962 144.59 68.5705 146.628 66.5322L194.471 18.6892C195.263 17.8974 195.71 16.8156 195.71 15.6946C195.726 7.04005 188.694 0.000392977 180.016 0.000392977Z" fill="white"/>
<path d="M180.016 195.723C178.895 195.723 177.813 195.276 177.021 194.484L129.186 146.649C127.148 144.611 123.714 146.586 124.467 149.377L135.457 190.4C136.178 193.089 134.148 195.73 131.365 195.73H114.55C112.637 195.73 110.96 194.445 110.458 192.595L102.023 161.128C101.513 159.215 101.513 157.2 102.023 155.288L108.075 132.703C111.297 120.693 120.672 111.309 132.682 108.095L155.267 102.043C157.18 101.534 159.195 101.534 161.107 102.043L192.574 110.478C194.424 110.972 195.71 112.65 195.71 114.57V131.394C195.71 134.169 193.084 136.191 190.403 135.47C175.986 131.605 159.618 127.223 149.348 124.471C146.565 123.727 144.59 127.152 146.628 129.191L194.471 177.034C195.263 177.825 195.71 178.907 195.71 180.028C195.71 188.706 188.67 195.746 179.992 195.746L180.016 195.723Z" fill="white"/>
<path d="M15.7177 0.00012207C16.8387 0.00012207 17.9206 0.44696 18.7123 1.23873L66.5475 49.0739C68.5857 51.1121 72.0193 49.1366 71.2668 46.3459L60.2761 5.32298C59.5549 2.64195 61.5853 0.00012207 64.3682 0.00012207H81.1834C83.0962 0.00012207 84.7738 1.28576 85.2755 3.13583L93.7106 34.6026C94.2201 36.5154 94.2201 38.5301 93.7106 40.4429L87.6587 63.0278C84.4367 75.0376 75.061 84.4212 63.0512 87.6353L40.4663 93.6872C38.5535 94.1968 36.5388 94.1968 34.626 93.6872L3.15922 85.2521C1.28564 84.7739 0 83.0964 0 81.1757V64.3527C0 61.5776 2.63399 59.5472 5.31502 60.2684C19.7236 64.1332 36.0841 68.5153 46.3536 71.2669C49.1444 72.0116 51.1199 68.5859 49.0738 66.5477L1.2386 18.7125C0.446838 17.9128 0 16.8389 0 15.7179C0 7.03978 7.03966 0.00012207 15.7177 0.00012207Z" fill="white"/>
<path d="M15.7179 195.723C16.8389 195.723 17.9207 195.276 18.7125 194.484L66.5477 146.649C68.5859 144.611 72.0195 146.586 71.2669 149.377L60.2762 190.4C59.555 193.089 61.5854 195.73 64.3683 195.73H81.1836C83.0963 195.73 84.7739 194.445 85.2757 192.595L93.7107 161.128C94.2203 159.215 94.2203 157.2 93.7107 155.288L87.6588 132.703C84.4369 120.693 75.0611 111.309 63.0513 108.095L40.4664 102.043C38.5536 101.534 36.5389 101.534 34.6262 102.043L3.15935 110.478C1.28576 110.957 0.00012207 112.634 0.00012207 114.547V131.37C0.00012207 134.145 2.63412 136.175 5.31515 135.454C19.7237 131.589 36.0843 127.207 46.3537 124.456C49.1445 123.711 51.12 127.137 49.0739 129.175L1.23873 177.018C0.44696 177.81 0.00012207 178.884 0.00012207 180.013C0.00012207 188.691 7.03978 195.73 15.7179 195.73V195.723Z" fill="white"/>
</g>
<defs>
<clipPath id="clip0_1_10548">
<rect width="195.723" height="195.723" fill="white"/>
</clipPath>
</defs>
</svg>
